<svg xmlns="http://www.w3.org/2000/svg" xmlns:xlink="http://www.w3.org/1999/xlink" width="500" zoomAndPan="magnify" viewBox="0 0 375 374.999991" height="500" preserveAspectRatio="xMidYMid meet" version="1.0"><defs><g/><clipPath id="9eb93e4233"><path d="M 11.582031 16.652344 L 363.960938 16.652344 L 363.960938 358.347656 L 11.582031 358.347656 Z M 11.582031 16.652344 " clip-rule="nonzero"/></clipPath><clipPath id="d1ba37e1b1"><path d="M 28.832031 16.652344 L 346.167969 16.652344 C 350.742188 16.652344 355.128906 18.46875 358.363281 21.703125 C 361.597656 24.9375 363.417969 29.324219 363.417969 33.902344 L 363.417969 341.097656 C 363.417969 345.675781 361.597656 350.0625 358.363281 353.296875 C 355.128906 356.53125 350.742188 358.347656 346.167969 358.347656 L 28.832031 358.347656 C 24.257812 358.347656 19.871094 356.53125 16.636719 353.296875 C 13.402344 350.0625 11.582031 345.675781 11.582031 341.097656 L 11.582031 33.902344 C 11.582031 29.324219 13.402344 24.9375 16.636719 21.703125 C 19.871094 18.46875 24.257812 16.652344 28.832031 16.652344 Z M 28.832031 16.652344 " clip-rule="nonzero"/></clipPath><clipPath id="51d9e5057a"><path d="M 116.714844 136 L 219.722656 136 L 219.722656 256.839844 L 116.714844 256.839844 Z M 116.714844 136 " clip-rule="nonzero"/></clipPath><clipPath id="242e12da88"><path d="M 135 119.097656 L 157 119.097656 L 157 145 L 135 145 Z M 135 119.097656 " clip-rule="nonzero"/></clipPath></defs><g clip-path="url(#9eb93e4233)"><g clip-path="url(#d1ba37e1b1)"><path fill="#ffffff" d="M 11.582031 16.652344 L 363.960938 16.652344 L 363.960938 358.347656 L 11.582031 358.347656 Z M 11.582031 16.652344 " fill-opacity="1" fill-rule="nonzero"/></g></g><g clip-path="url(#51d9e5057a)"><path fill="#264180" d="M 210.492188 136.914062 L 172.660156 136.914062 L 165.984375 151.191406 C 166.160156 158.601562 166.59375 165.953125 167.46875 173.117188 L 167.929688 176.652344 C 168.066406 177.867188 168.316406 178.953125 168.5 180.121094 L 169.121094 183.589844 L 169.878906 186.933594 C 170.34375 189.226562 171.011719 191.296875 171.652344 193.488281 L 171.890625 194.304688 L 172.167969 195.066406 L 172.585938 196.207031 L 183.710938 169.722656 C 185.570312 165.363281 187.101562 160.839844 188.296875 156.140625 C 188.101562 159.199219 187.996094 162.761719 187.996094 166.867188 L 188.148438 173.890625 L 189.429688 208.585938 L 179.097656 208.585938 C 179.492188 209.09375 179.902344 209.585938 180.320312 210.066406 C 180.972656 210.816406 181.707031 211.414062 182.402344 212.128906 C 183.144531 212.746094 183.917969 213.316406 184.710938 213.910156 C 186.351562 214.910156 188.113281 215.886719 190.054688 216.417969 C 191.996094 217.078125 194.085938 217.328125 196.261719 217.453125 C 198.421875 217.503906 200.664062 217.28125 202.929688 216.878906 C 207.433594 215.960938 212.019531 214.257812 216.273438 211.679688 Z M 216.273438 211.679688 C 213.078125 215.714844 209.199219 219.222656 204.765625 222.113281 C 202.523438 223.503906 200.144531 224.769531 197.574219 225.734375 C 195.003906 226.636719 192.273438 227.390625 189.410156 227.601562 C 186.550781 227.9375 183.613281 227.691406 180.648438 227.199219 C 179.203125 226.863281 177.730469 226.496094 176.285156 226.023438 C 174.894531 225.460938 173.421875 224.957031 172.074219 224.273438 C 166.582031 221.585938 161.710938 217.664062 157.621094 213.316406 C 153.5 208.960938 149.851562 204.1875 146.753906 199.253906 C 146.125 198.273438 145.5 197.285156 144.878906 196.285156 L 116.691406 256.53125 L 147.226562 256.53125 L 156.628906 234.113281 L 190.332031 234.113281 L 191.085938 256.53125 L 219.75 256.53125 L 216.273438 211.679688 " fill-opacity="1" fill-rule="nonzero"/></g><path fill="#f2541d" d="M 167.386719 208.585938 C 165.304688 206.203125 163.433594 203.625 161.710938 200.949219 C 158.457031 195.839844 155.878906 190.28125 153.839844 184.519531 C 153.410156 183.019531 152.925781 181.527344 152.480469 180.042969 C 152.074219 178.59375 151.6875 177.152344 151.410156 175.671875 C 151.101562 174.167969 150.6875 172.691406 150.460938 171.175781 L 149.804688 166.617188 C 149.699219 165.867188 149.558594 165.113281 149.492188 164.347656 L 149.332031 162.046875 L 149 157.460938 C 148.894531 154.390625 148.964844 151.320312 148.949219 148.265625 L 143.800781 148.265625 C 143.804688 148.386719 143.816406 148.523438 143.828125 148.644531 C 144.042969 151.734375 144.203125 154.804688 144.511719 157.863281 L 145.179688 162.640625 L 145.515625 165.015625 C 145.632812 165.800781 145.835938 166.582031 145.988281 167.367188 L 147.011719 172.039062 C 147.351562 173.597656 147.890625 175.109375 148.308594 176.636719 C 148.949219 179.066406 149.863281 181.398438 150.757812 183.726562 C 150.996094 184.355469 151.230469 184.96875 151.460938 185.597656 C 153.972656 191.382812 157.011719 196.871094 160.695312 201.800781 C 164.355469 206.695312 168.582031 211.175781 173.503906 214.496094 C 171.292969 212.734375 169.25 210.738281 167.386719 208.585938 " fill-opacity="1" fill-rule="nonzero"/><g clip-path="url(#242e12da88)"><path fill="#f2541d" d="M 148.011719 139.558594 L 148.28125 132.875 L 156.824219 134.5 L 154.742188 130.308594 L 148.515625 128.988281 L 148.871094 121.984375 L 146.375 119.40625 L 143.871094 121.984375 L 144.230469 128.988281 L 138 130.308594 L 135.925781 134.5 L 144.460938 132.875 L 144.730469 139.558594 L 142.238281 142.515625 L 142.097656 144.78125 L 146.375 143.699219 L 150.644531 144.78125 L 150.503906 142.515625 L 148.011719 139.558594 " fill-opacity="1" fill-rule="nonzero"/></g><g fill="#f2541d" fill-opacity="1"><g transform="translate(49.863212, 204.250298)"><g><path d="M -20.84375 -82.296875 C -21.613281 -82.441406 -22.367188 -82.6875 -23.109375 -83.03125 C -23.847656 -83.382812 -24.359375 -84.09375 -24.640625 -85.15625 C -24.359375 -85.4375 -24.054688 -85.753906 -23.734375 -86.109375 C -23.421875 -86.460938 -23.09375 -86.742188 -22.75 -86.953125 C -22.039062 -87.234375 -21.332031 -87.476562 -20.625 -87.6875 C -19.914062 -87.90625 -19.210938 -88.082031 -18.515625 -88.21875 C -13.429688 -89.28125 -8.296875 -90.210938 -3.109375 -91.015625 C 2.066406 -91.828125 7.300781 -92.269531 12.59375 -92.34375 C 14.988281 -92.414062 17.363281 -92.660156 19.71875 -93.078125 C 22.082031 -93.503906 24.46875 -93.859375 26.875 -94.140625 C 30.75 -94.640625 34.609375 -95.117188 38.453125 -95.578125 C 42.296875 -96.035156 46.117188 -96.507812 49.921875 -97 C 50.628906 -97.070312 51.351562 -97.175781 52.09375 -97.3125 C 52.832031 -97.457031 53.628906 -97.597656 54.484375 -97.734375 C 54.898438 -98.648438 55.300781 -99.582031 55.6875 -100.53125 C 56.082031 -101.488281 56.523438 -102.425781 57.015625 -103.34375 C 57.503906 -104.40625 58.03125 -105.003906 58.59375 -105.140625 C 59.164062 -105.285156 60.296875 -105.144531 61.984375 -104.71875 C 61.910156 -103.800781 61.835938 -102.867188 61.765625 -101.921875 C 61.703125 -100.972656 61.632812 -99.96875 61.5625 -98.90625 C 62.125 -98.832031 62.6875 -98.757812 63.25 -98.6875 C 63.820312 -98.625 64.351562 -98.625 64.84375 -98.6875 C 69.21875 -99.113281 73.554688 -99.535156 77.859375 -99.953125 C 82.160156 -100.378906 86.492188 -100.769531 90.859375 -101.125 C 98.765625 -101.832031 106.644531 -102.429688 114.5 -102.921875 C 122.363281 -103.421875 130.25 -103.351562 138.15625 -102.71875 C 139.488281 -102.644531 140.828125 -102.445312 142.171875 -102.125 C 143.515625 -101.8125 144.851562 -101.441406 146.1875 -101.015625 C 147.101562 -100.804688 147.929688 -100.398438 148.671875 -99.796875 C 149.410156 -99.203125 149.921875 -98.304688 150.203125 -97.109375 C 149.222656 -96.046875 148.128906 -95.5 146.921875 -95.46875 C 145.722656 -95.4375 144.664062 -95.734375 143.75 -96.359375 C 142.0625 -97.421875 140.316406 -98.070312 138.515625 -98.3125 C 136.722656 -98.5625 134.910156 -98.6875 133.078125 -98.6875 C 128.347656 -98.757812 123.65625 -98.632812 119 -98.3125 C 114.34375 -98 109.691406 -97.597656 105.046875 -97.109375 C 99.753906 -96.609375 94.460938 -96.078125 89.171875 -95.515625 C 83.878906 -94.953125 78.59375 -94.390625 73.3125 -93.828125 C 71.613281 -93.679688 69.914062 -93.503906 68.21875 -93.296875 C 66.53125 -93.085938 64.875 -92.878906 63.25 -92.671875 C 62.6875 -92.597656 62.125 -92.488281 61.5625 -92.34375 C 61 -92.207031 60.4375 -92.066406 59.875 -91.921875 C 59.726562 -91.429688 59.582031 -90.957031 59.4375 -90.5 C 59.300781 -90.039062 59.164062 -89.5625 59.03125 -89.0625 C 56.34375 -78.695312 53.640625 -68.332031 50.921875 -57.96875 C 48.210938 -47.601562 45.484375 -37.238281 42.734375 -26.875 C 41.679688 -22.914062 40.816406 -18.910156 40.140625 -14.859375 C 39.472656 -10.804688 38.75 -6.769531 37.96875 -2.75 C 36.707031 3.8125 35.367188 10.367188 33.953125 16.921875 C 32.546875 23.484375 30.890625 29.972656 28.984375 36.390625 C 28.421875 38.359375 27.769531 40.332031 27.03125 42.3125 C 26.289062 44.289062 25.492188 46.226562 24.640625 48.125 C 23.867188 49.957031 22.847656 51.15625 21.578125 51.71875 C 20.304688 52.289062 18.71875 52.4375 16.8125 52.15625 C 14.207031 51.800781 13.007812 50.425781 13.21875 48.03125 C 13.289062 46.894531 13.414062 45.765625 13.59375 44.640625 C 13.769531 43.515625 14 42.421875 14.28125 41.359375 C 15.96875 34.941406 17.691406 28.539062 19.453125 22.15625 C 21.222656 15.78125 22.988281 9.414062 24.75 3.0625 C 25.738281 -0.382812 26.78125 -3.835938 27.875 -7.296875 C 28.96875 -10.753906 29.972656 -14.242188 30.890625 -17.765625 C 31.523438 -20.234375 32.035156 -22.753906 32.421875 -25.328125 C 32.804688 -27.910156 33.175781 -30.46875 33.53125 -33 C 34.09375 -37.019531 34.53125 -41.039062 34.84375 -45.0625 C 35.164062 -49.082031 35.1875 -53.101562 34.90625 -57.125 C 34.769531 -59.445312 34.539062 -61.753906 34.21875 -64.046875 C 33.90625 -66.335938 33.5 -68.648438 33 -70.984375 C 32.71875 -72.390625 32.296875 -73.757812 31.734375 -75.09375 C 31.171875 -76.4375 30.535156 -77.742188 29.828125 -79.015625 C 29.410156 -79.929688 28.847656 -80.796875 28.140625 -81.609375 C 27.429688 -82.421875 26.722656 -83.179688 26.015625 -83.890625 C 24.960938 -84.867188 23.816406 -85.570312 22.578125 -86 C 21.347656 -86.425781 19.992188 -86.5 18.515625 -86.21875 C 15.898438 -85.71875 13.269531 -85.273438 10.625 -84.890625 C 7.988281 -84.503906 5.363281 -84.132812 2.75 -83.78125 C -0.144531 -83.425781 -3.035156 -83.109375 -5.921875 -82.828125 C -8.816406 -82.546875 -11.707031 -82.300781 -14.59375 -82.09375 C -15.582031 -81.945312 -16.601562 -81.925781 -17.65625 -82.03125 C -18.71875 -82.132812 -19.78125 -82.222656 -20.84375 -82.296875 Z M 32.15625 -87.6875 C 36.320312 -84.726562 39.160156 -81.1875 40.671875 -77.0625 C 42.191406 -72.9375 43.335938 -68.476562 44.109375 -63.6875 C 44.535156 -64.601562 45.046875 -65.957031 45.640625 -67.75 C 46.242188 -69.550781 46.894531 -71.597656 47.59375 -73.890625 C 48.300781 -76.179688 48.972656 -78.453125 49.609375 -80.703125 C 50.242188 -82.960938 50.789062 -84.988281 51.25 -86.78125 C 51.707031 -88.582031 51.972656 -89.910156 52.046875 -90.765625 C 50.347656 -91.117188 48.671875 -91.097656 47.015625 -90.703125 C 45.359375 -90.316406 43.71875 -90.019531 42.09375 -89.8125 C 40.550781 -89.59375 38.929688 -89.410156 37.234375 -89.265625 C 35.546875 -89.128906 33.851562 -88.601562 32.15625 -87.6875 Z M 32.15625 -87.6875 "/></g></g></g><g fill="#f2541d" fill-opacity="1"><g transform="translate(104.867446, 204.250298)"><g><path d="M 31 -29.9375 C 31.695312 -26.976562 31.625 -24.125 30.78125 -21.375 C 30.707031 -21.15625 30.53125 -20.882812 30.25 -20.5625 C 29.96875 -20.25 29.757812 -20.128906 29.625 -20.203125 C 28.769531 -20.347656 28.132812 -20.738281 27.71875 -21.375 C 27.5 -21.71875 27.335938 -22.132812 27.234375 -22.625 C 27.128906 -23.125 27.007812 -23.625 26.875 -24.125 C 26.65625 -24.6875 26.441406 -25.285156 26.234375 -25.921875 C 26.023438 -26.554688 25.78125 -27.257812 25.5 -28.03125 C 25 -27.539062 24.519531 -27.117188 24.0625 -26.765625 C 23.601562 -26.410156 23.195312 -26.019531 22.84375 -25.59375 C 21.363281 -23.695312 19.882812 -21.796875 18.40625 -19.890625 C 16.925781 -17.984375 15.445312 -16.039062 13.96875 -14.0625 C 12.832031 -12.582031 11.71875 -11.050781 10.625 -9.46875 C 9.53125 -7.882812 8.382812 -6.316406 7.1875 -4.765625 C 6.625 -3.984375 6.007812 -3.257812 5.34375 -2.59375 C 4.675781 -1.925781 3.988281 -1.238281 3.28125 -0.53125 C 2.15625 0.59375 0.675781 1.125 -1.15625 1.0625 C -3.5625 1.0625 -4.515625 -0.0664062 -4.015625 -2.328125 C -3.734375 -3.671875 -3.273438 -5.046875 -2.640625 -6.453125 C -1.023438 -10.328125 0.59375 -14.1875 2.21875 -18.03125 C 3.84375 -21.875 5.5 -25.703125 7.1875 -29.515625 C 7.40625 -30.078125 7.632812 -30.601562 7.875 -31.09375 C 8.125 -31.59375 8.390625 -32.050781 8.671875 -32.46875 C 9.515625 -33.957031 10.925781 -34.3125 12.90625 -33.53125 C 12.757812 -30.988281 12.191406 -28.535156 11.203125 -26.171875 C 10.222656 -23.816406 9.660156 -21.191406 9.515625 -18.296875 C 10.148438 -19.003906 10.675781 -19.601562 11.09375 -20.09375 C 11.519531 -20.59375 11.910156 -21.019531 12.265625 -21.375 C 13.609375 -22.988281 14.945312 -24.609375 16.28125 -26.234375 C 17.625 -27.859375 18.96875 -29.445312 20.3125 -31 C 21.71875 -32.6875 23.515625 -33.601562 25.703125 -33.75 C 28.597656 -34.03125 30.363281 -32.757812 31 -29.9375 Z M 31 -29.9375 "/></g></g></g><g fill="#264180" fill-opacity="1"><g transform="translate(223.652627, 254.751846)"><g><path d="M 31.0625 -39.578125 L 46.828125 -39.578125 L 32.625 -23.296875 L 47.125 0 L 32.109375 0 L 23.875 -14.5 L 16.96875 -8.859375 L 16.96875 0 L 4.25 0 L 4.25 -39.578125 L 16.96875 -39.578125 L 16.96875 -22.671875 Z M 31.0625 -39.578125 "/></g></g></g><g fill="#264180" fill-opacity="1"><g transform="translate(271.559577, 254.751846)"><g><path d="M 43.671875 -15.9375 C 43.671875 -10.53125 41.960938 -6.40625 38.546875 -3.5625 C 35.128906 -0.726562 30.273438 0.6875 23.984375 0.6875 C 17.703125 0.6875 12.84375 -0.726562 9.40625 -3.5625 C 5.96875 -6.40625 4.25 -10.53125 4.25 -15.9375 L 4.25 -39.578125 L 16.96875 -39.578125 L 16.96875 -16.109375 C 16.96875 -13.878906 17.5625 -12.101562 18.75 -10.78125 C 19.9375 -9.457031 21.664062 -8.796875 23.9375 -8.796875 C 26.195312 -8.796875 27.929688 -9.46875 29.140625 -10.8125 C 30.347656 -12.15625 30.953125 -13.921875 30.953125 -16.109375 L 30.953125 -39.578125 L 43.671875 -39.578125 Z M 43.671875 -15.9375 "/></g></g></g><g fill="#f2541d" fill-opacity="1"><g transform="translate(223.652627, 196.870539)"><g><path d="M 41.890625 -25.28125 C 42.523438 -25.769531 43.175781 -26.207031 43.84375 -26.59375 C 44.507812 -26.988281 45.300781 -26.941406 46.21875 -26.453125 C 43.6875 -23.066406 40.53125 -20.753906 36.75 -19.515625 C 32.976562 -18.285156 27.921875 -17.953125 21.578125 -18.515625 C 21.148438 -17.878906 20.691406 -17.207031 20.203125 -16.5 C 19.710938 -15.789062 19.21875 -15.050781 18.71875 -14.28125 C 17.382812 -12.300781 16.03125 -10.320312 14.65625 -8.34375 C 13.28125 -6.375 11.847656 -4.40625 10.359375 -2.4375 C 9.304688 -1.019531 8.039062 0.175781 6.5625 1.15625 C 5.425781 1.863281 4.082031 2.320312 2.53125 2.53125 C 1.332031 2.675781 0.363281 2.410156 -0.375 1.734375 C -1.113281 1.066406 -1.550781 0.132812 -1.6875 -1.0625 C -1.757812 -1.414062 -1.796875 -1.800781 -1.796875 -2.21875 C -1.796875 -2.644531 -1.757812 -3.066406 -1.6875 -3.484375 C -1.125 -6.453125 -0.546875 -9.429688 0.046875 -12.421875 C 0.648438 -15.421875 1.269531 -18.4375 1.90625 -21.46875 C 1.976562 -22.03125 2.132812 -22.554688 2.375 -23.046875 C 2.625 -23.546875 2.890625 -24.046875 3.171875 -24.546875 C 3.242188 -24.753906 3.457031 -24.945312 3.8125 -25.125 C 4.164062 -25.300781 4.550781 -25.53125 4.96875 -25.8125 C 5.113281 -25.175781 5.238281 -24.609375 5.34375 -24.109375 C 5.445312 -23.617188 5.5 -23.164062 5.5 -22.75 C 5.289062 -20.769531 5.046875 -18.773438 4.765625 -16.765625 C 4.484375 -14.753906 4.195312 -12.765625 3.90625 -10.796875 C 3.769531 -9.378906 3.648438 -7.960938 3.546875 -6.546875 C 3.441406 -5.140625 3.351562 -3.769531 3.28125 -2.4375 C 4.125 -2.082031 4.703125 -2.082031 5.015625 -2.4375 C 5.335938 -2.789062 5.601562 -3.140625 5.8125 -3.484375 C 7.582031 -6.304688 9.328125 -9.109375 11.046875 -11.890625 C 12.773438 -14.679688 14.523438 -17.488281 16.296875 -20.3125 C 16.578125 -20.800781 16.734375 -21.3125 16.765625 -21.84375 C 16.796875 -22.375 16.78125 -22.957031 16.71875 -23.59375 C 16.570312 -26.476562 17.097656 -29.117188 18.296875 -31.515625 C 19.492188 -33.921875 21.117188 -36.109375 23.171875 -38.078125 C 23.453125 -38.296875 23.785156 -38.488281 24.171875 -38.65625 C 24.554688 -38.832031 24.960938 -38.992188 25.390625 -39.140625 C 26.097656 -39.347656 26.800781 -39.414062 27.5 -39.34375 C 28.207031 -39.28125 28.84375 -39 29.40625 -38.5 C 30.039062 -38.007812 30.285156 -37.425781 30.140625 -36.75 C 30.003906 -36.082031 29.796875 -35.46875 29.515625 -34.90625 C 28.734375 -33 27.898438 -31.078125 27.015625 -29.140625 C 26.140625 -27.203125 25.207031 -25.210938 24.21875 -23.171875 C 25.207031 -21.828125 26.300781 -21.03125 27.5 -20.78125 C 28.695312 -20.539062 29.96875 -20.523438 31.3125 -20.734375 C 33.28125 -21.085938 35.128906 -21.664062 36.859375 -22.46875 C 38.585938 -23.28125 40.265625 -24.21875 41.890625 -25.28125 Z M 41.890625 -25.28125 "/></g></g></g><g fill="#f2541d" fill-opacity="1"><g transform="translate(263.530706, 196.870539)"><g><path d="M 36.59375 -17.453125 C 36.59375 -17.453125 36.878906 -17.382812 37.453125 -17.25 C 37.378906 -16.894531 37.34375 -16.503906 37.34375 -16.078125 C 37.34375 -15.648438 37.269531 -15.265625 37.125 -14.921875 C 36.632812 -14.140625 36.125 -13.34375 35.59375 -12.53125 C 35.0625 -11.71875 34.476562 -10.960938 33.84375 -10.265625 C 30.113281 -6.242188 25.8125 -3.066406 20.9375 -0.734375 C 18.820312 0.242188 16.65625 0.800781 14.4375 0.9375 C 12.21875 1.082031 9.976562 0.84375 7.71875 0.21875 C 4.894531 -0.5625 2.757812 -2.046875 1.3125 -4.234375 C -0.125 -6.421875 -0.738281 -9.132812 -0.53125 -12.375 C -0.320312 -16.039062 0.46875 -19.40625 1.84375 -22.46875 C 3.21875 -25.539062 5.109375 -28.3125 7.515625 -30.78125 C 10.546875 -33.957031 14 -34.628906 17.875 -32.796875 C 19.425781 -32.085938 20.46875 -31.023438 21 -29.609375 C 21.53125 -28.203125 21.441406 -26.65625 20.734375 -24.96875 C 20.378906 -23.976562 19.898438 -23.039062 19.296875 -22.15625 C 18.703125 -21.28125 18.085938 -20.453125 17.453125 -19.671875 C 14.554688 -16.359375 10.960938 -13.859375 6.671875 -12.171875 C 6.378906 -10.828125 6.375 -9.625 6.65625 -8.5625 C 6.945312 -7.507812 7.335938 -6.523438 7.828125 -5.609375 C 8.460938 -4.546875 9.203125 -3.734375 10.046875 -3.171875 C 10.890625 -2.609375 11.910156 -2.394531 13.109375 -2.53125 C 14.097656 -2.675781 15.117188 -2.867188 16.171875 -3.109375 C 17.234375 -3.359375 18.222656 -3.695312 19.140625 -4.125 C 22.035156 -5.394531 24.769531 -6.960938 27.34375 -8.828125 C 29.914062 -10.703125 32.257812 -12.90625 34.375 -15.4375 C 34.726562 -15.789062 35.097656 -16.125 35.484375 -16.4375 C 35.878906 -16.757812 36.25 -17.097656 36.59375 -17.453125 Z M 14.0625 -29.09375 C 12.300781 -27.820312 10.925781 -26.285156 9.9375 -24.484375 C 8.957031 -22.691406 8.21875 -20.347656 7.71875 -17.453125 C 9.195312 -18.515625 10.429688 -19.675781 11.421875 -20.9375 C 12.410156 -22.207031 13.289062 -23.617188 14.0625 -25.171875 C 14.34375 -25.734375 14.535156 -26.347656 14.640625 -27.015625 C 14.753906 -27.691406 14.5625 -28.382812 14.0625 -29.09375 Z M 14.0625 -29.09375 "/></g></g></g><g fill="#f2541d" fill-opacity="1"><g transform="translate(295.792799, 196.870539)"><g><path d="M 10.15625 -25.390625 C 9.03125 -21.648438 8.023438 -17.910156 7.140625 -14.171875 C 6.253906 -10.429688 5.601562 -6.625 5.1875 -2.75 C 5.039062 -1.195312 4.984375 0.332031 5.015625 1.84375 C 5.054688 3.363281 5.289062 4.863281 5.71875 6.34375 C 6.28125 8.101562 7.050781 9.285156 8.03125 9.890625 C 9.019531 10.492188 10.429688 10.546875 12.265625 10.046875 C 13.117188 9.765625 13.945312 9.445312 14.75 9.09375 C 15.5625 8.738281 16.359375 8.351562 17.140625 7.9375 C 19.179688 6.738281 21.066406 5.363281 22.796875 3.8125 C 24.523438 2.257812 26.09375 0.53125 27.5 -1.375 C 27.925781 -1.9375 28.367188 -2.515625 28.828125 -3.109375 C 29.285156 -3.710938 29.757812 -4.265625 30.25 -4.765625 C 31.164062 -5.742188 32.15625 -5.8125 33.21875 -4.96875 C 33.289062 -4.6875 33.328125 -4.507812 33.328125 -4.4375 C 31.203125 0.28125 28.375 4.191406 24.84375 7.296875 C 21.320312 10.398438 16.921875 12.445312 11.640625 13.4375 C 10.722656 13.570312 9.769531 13.625 8.78125 13.59375 C 7.789062 13.5625 6.835938 13.4375 5.921875 13.21875 C 0.492188 12.226562 -2.429688 9.09375 -2.859375 3.8125 C -2.929688 2.039062 -2.929688 0.257812 -2.859375 -1.53125 C -2.785156 -3.332031 -2.644531 -5.078125 -2.4375 -6.765625 C -1.875 -11.210938 -0.957031 -15.550781 0.3125 -19.78125 C 1.582031 -24.007812 2.957031 -28.238281 4.4375 -32.46875 C 8.175781 -43.257812 12.160156 -53.960938 16.390625 -64.578125 C 20.628906 -75.191406 25.285156 -85.644531 30.359375 -95.9375 C 31.628906 -98.550781 33.078125 -101.054688 34.703125 -103.453125 C 35.265625 -104.367188 35.984375 -105.054688 36.859375 -105.515625 C 37.742188 -105.972656 38.820312 -105.957031 40.09375 -105.46875 C 40.019531 -105.1875 39.984375 -104.898438 39.984375 -104.609375 C 39.984375 -104.328125 39.945312 -104.117188 39.875 -103.984375 C 38.46875 -100.804688 37.023438 -97.648438 35.546875 -94.515625 C 34.066406 -91.378906 32.691406 -88.1875 31.421875 -84.9375 C 27.535156 -75.132812 23.796875 -65.28125 20.203125 -55.375 C 16.609375 -45.46875 13.257812 -35.472656 10.15625 -25.390625 Z M 10.15625 -25.390625 "/></g></g></g></svg>